<svg width="100%" height="100%" version="1.1" xmlns="http://www.w3.org/2000/svg">
<polyline points="477,174 477,196 475,219 471,242 463,264 451,284 430,297 430,326 401,330 374,330 350,330 328,329 310,329 293,329 276,329 261,329 245,328 229,328 214,325 197,328 179,328 160,326 138,326 114,326 107,304 95,289 83,274 75,256 73,236 71,218 71,199 70,181 71,163 70,145 72,126 74,108 78,89 89,73 92,52 104,36 119,22 137,13 158,11 179,11 198,13 215,12 231,12 247,12 264,13 280,13 297,13 314,15 327,27 347,28 368,30 398,25 409,43 432,53 442,73 446,94 468,110 472,132 475,155 " style="fill:none;stroke:red;stroke-width:2"/>
</svg>