<svg width="100%" height="100%" version="1.1" xmlns="http://www.w3.org/2000/svg">
<polyline points="492,174 496,198 476,219 471,242 464,264 451,284 480,331 441,335 401,330 374,330 350,330 328,329 310,329 293,329 276,329 261,329 245,328 229,328 213,328 197,328 179,328 159,328 138,327 114,326 85,324 95,289 71,281 60,263 52,244 48,223 46,203 13,183 31,161 32,139 32,116 30,91 28,64 26,34 77,40 90,22 114,16 137,13 158,11 179,11 198,13 215,12 231,12 247,12 264,13 280,13 297,13 315,13 336,11 357,12 380,15 407,17 433,25 446,44 456,65 463,88 469,110 491,129 491,153 " style="fill:none;stroke:red;stroke-width:2"/>
</svg>