<svg width="100%" height="100%" version="1.1" xmlns="http://www.w3.org/2000/svg">
<polyline points="356,253 353,263 348,273 344,282 340,291 336,300 332,310 328,319 324,330 319,341 313,353 308,369 305,397 299,435 264,341 252,295 248,280 245,281 242,282 238,283 234,284 226,290 213,302 170,340 63,422 70,386 81,353 92,326 100,305 106,288 112,272 117,258 121,245 126,233 131,221 135,210 140,199 144,187 149,175 153,162 158,148 164,132 171,115 179,94 188,65 203,40 223,24 246,18 269,17 293,16 319,14 347,12 376,11 410,10 427,35 434,68 413,119 398,154 387,180 377,201 371,217 366,231 360,243 " style="fill:none;stroke:red;stroke-width:2"/>
</svg>