<svg width="100%" height="100%" version="1.1" xmlns="http://www.w3.org/2000/svg">
<polyline points="491,181 494,205 474,226 471,249 464,271 453,292 433,306 443,343 408,344 380,345 355,345 333,345 313,344 295,345 278,344 261,344 245,344 228,343 212,343 194,343 197,295 155,343 131,343 106,342 87,329 75,311 58,296 42,278 33,258 28,235 4,215 7,191 10,166 29,145 10,117 8,90 6,61 3,26 62,35 80,20 108,16 131,12 155,12 177,14 196,14 214,14 231,14 247,14 264,14 281,14 299,14 318,13 339,12 360,14 383,17 410,20 433,31 446,51 455,73 462,95 492,110 490,136 490,160 " style="fill:none;stroke:red;stroke-width:2"/>
</svg>